<?xml version="1.0" standalone="no"?><!DOCTYPE svg PUBLIC "-//W3C//DTD SVG 1.1//EN" "http://www.w3.org/Graphics/SVG/1.1/DTD/svg11.dtd"><svg t="1693311248857" class="icon" viewBox="0 0 1024 1024" version="1.1" xmlns="http://www.w3.org/2000/svg" p-id="1261" xmlns:xlink="http://www.w3.org/1999/xlink" width="200" height="200"><path d="M512 490.666667a149.333333 149.333333 0 1 1 0-298.666667 149.333333 149.333333 0 0 1 0 298.666667z m0 64a213.333333 213.333333 0 1 0 0-426.666667 213.333333 213.333333 0 0 0 0 426.666667zM320 680.277333c-44.8 33.450667-74.666667 87.253333-74.666667 173.056h-64c0-102.698667 36.949333-176.938667 100.309334-224.298666C343.381333 582.826667 425.941333 565.333333 512 565.333333s168.618667 17.493333 230.357333 63.701334c63.36 47.36 100.309333 121.6 100.309334 224.298666h-64c0-85.76-29.866667-139.562667-74.666667-173.056-46.336-34.688-113.109333-50.944-192-50.944-78.890667 0-145.664 16.256-192 50.944z" fill="#4D4D4D" p-id="1262"></path></svg>